M48
METRIC,TZ
T1C0.701
T2C0.800
T3C0.990
T4C1.000
T5C1.300
%
G90
G05
T1
X162449Y-101203
X165907Y-105939
X165907Y-116099
X168510Y-115400
X172607Y-88039
X172607Y-98199
X172609Y-101203
X175071Y-115297
T2
X161110Y-118900
X162010Y-90600
X166110Y-118900
X167010Y-90600
X169110Y-92450
X169110Y-97450
X175110Y-90600
X180110Y-90600
X188210Y-90600
X193210Y-90600
T3
X172510Y-106000
X172510Y-110500
X182710Y-106000
X182710Y-110500
T5
X168510Y-104750
X168510Y-111760
X186710Y-104740
X186710Y-111750
T4
X186110Y-117700G85X187110Y-117700
G05
X190110Y-116700G85X191110Y-116700
G05
X194110Y-117700G85X195110Y-117700
G05
T0
M30
