%TF.GenerationSoftware,KiCad,Pcbnew,4.0.4-stable*%
%TF.CreationDate,2016-10-08T17:02:56+01:00*%
%TF.ProjectId,ControlesVolante,436F6E74726F6C6573566F6C616E7465,rev?*%
%TF.FileFunction,Copper,L2,Bot,Signal*%
%FSLAX46Y46*%
G04 Gerber Fmt 4.6, Leading zero omitted, Abs format (unit mm)*
G04 Created by KiCad (PCBNEW 4.0.4-stable) date Sat Oct  8 17:02:56 2016*
%MOMM*%
%LPD*%
G01*
G04 APERTURE LIST*
%ADD10C,0.100000*%
%ADD11C,1.699260*%
%ADD12R,1.699260X1.699260*%
%ADD13R,3.000000X2.000000*%
%ADD14R,1.300000X1.500000*%
%ADD15R,1.500000X1.300000*%
%ADD16C,1.524000*%
%ADD17C,2.100000*%
%ADD18C,1.750000*%
%ADD19C,0.508000*%
G04 APERTURE END LIST*
D10*
D11*
X175070520Y-115297460D03*
D12*
X168510000Y-115400000D03*
D13*
X194610000Y-117700000D03*
X186610000Y-117700000D03*
X190610000Y-116700000D03*
D11*
X165907460Y-105939480D03*
D12*
X165907460Y-116099480D03*
D11*
X172607460Y-88039480D03*
D12*
X172607460Y-98199480D03*
D11*
X162449480Y-101202540D03*
D12*
X172609480Y-101202540D03*
D14*
X191710000Y-97050000D03*
X191710000Y-99750000D03*
X188410000Y-99750000D03*
X188410000Y-97050000D03*
D15*
X185350000Y-101800000D03*
X188050000Y-101800000D03*
D14*
X184910000Y-97050000D03*
X184910000Y-99750000D03*
D15*
X176260000Y-94200000D03*
X178960000Y-94200000D03*
X162860000Y-96000000D03*
X165560000Y-96000000D03*
X165560000Y-98300000D03*
X162860000Y-98300000D03*
D16*
X175110000Y-90600000D03*
X180110000Y-90600000D03*
X193210000Y-90600000D03*
X188210000Y-90600000D03*
X167010000Y-90600000D03*
X162010000Y-90600000D03*
X166110000Y-118900000D03*
X161110000Y-118900000D03*
X169110000Y-97450000D03*
X169110000Y-92450000D03*
D17*
X168510000Y-111760000D03*
D18*
X172510000Y-110500000D03*
X172510000Y-106000000D03*
D17*
X168510000Y-104750000D03*
X186710000Y-104740000D03*
D18*
X182710000Y-106000000D03*
X182710000Y-110500000D03*
D17*
X186710000Y-111750000D03*
D19*
X191710000Y-99750000D02*
X191710000Y-111400000D01*
X194610000Y-114300000D02*
X194610000Y-117700000D01*
X191710000Y-111400000D02*
X194610000Y-114300000D01*
X170410000Y-96000000D02*
X169810000Y-95400000D01*
X169810000Y-95400000D02*
X167610000Y-95400000D01*
X167610000Y-95400000D02*
X167010000Y-96000000D01*
X165560000Y-96000000D02*
X167010000Y-96000000D01*
X181510000Y-98400000D02*
X179110000Y-96000000D01*
X190310000Y-98400000D02*
X181510000Y-98400000D01*
X191610000Y-99700000D02*
X190310000Y-98400000D01*
X179110000Y-96000000D02*
X170410000Y-96000000D01*
X165560000Y-96000000D02*
X165560000Y-98300000D01*
X165560000Y-96000000D02*
X165810000Y-96000000D01*
X168710000Y-119000000D02*
X168710000Y-118100000D01*
X159410000Y-120000000D02*
X160010000Y-120600000D01*
X160010000Y-120600000D02*
X167110000Y-120600000D01*
X159889158Y-111583998D02*
X160926002Y-111583998D01*
X158393998Y-113079158D02*
X159889158Y-111583998D01*
X158393998Y-116583998D02*
X158393998Y-113079158D01*
X159410000Y-117600000D02*
X158393998Y-116583998D01*
X167110000Y-120600000D02*
X168710000Y-119000000D01*
X172607460Y-88039480D02*
X171967980Y-87400000D01*
X162110000Y-87400000D02*
X171967980Y-87400000D01*
X159910000Y-89600000D02*
X162110000Y-87400000D01*
X159910000Y-93463156D02*
X159910000Y-89600000D01*
X158309710Y-95063446D02*
X159910000Y-93463156D01*
X158309710Y-105436554D02*
X158309710Y-95063446D01*
X161210000Y-108336844D02*
X158309710Y-105436554D01*
X161210000Y-111300000D02*
X161210000Y-108336844D01*
X160926002Y-111583998D02*
X161210000Y-111300000D01*
X159410000Y-117600000D02*
X159410000Y-120000000D01*
X171512540Y-115297460D02*
X175070520Y-115297460D01*
X168710000Y-118100000D02*
X171512540Y-115297460D01*
X183526002Y-114616002D02*
X186610000Y-117700000D01*
X175428542Y-115297460D02*
X176110000Y-114616002D01*
X176110000Y-114616002D02*
X183526002Y-114616002D01*
X175070520Y-115297460D02*
X175428542Y-115297460D01*
X172207460Y-87639480D02*
X172607460Y-88039480D01*
X175070520Y-115055482D02*
X175070520Y-115297460D01*
X175070520Y-115297460D02*
X175070520Y-115276522D01*
X186610000Y-117700000D02*
X186610000Y-117100000D01*
X163810000Y-109500000D02*
X163810000Y-110400000D01*
X162010000Y-92800000D02*
X159325712Y-95484288D01*
X159325712Y-95484288D02*
X159325712Y-105015712D01*
X159325712Y-105015712D02*
X163810000Y-109500000D01*
X162010000Y-90600000D02*
X162010000Y-92800000D01*
X163810000Y-110400000D02*
X166010000Y-112600000D01*
X182710000Y-112800000D02*
X182010000Y-113500000D01*
X172810000Y-113500000D02*
X172510000Y-113200000D01*
X182010000Y-113500000D02*
X172810000Y-113500000D01*
X182710000Y-112800000D02*
X182710000Y-112700000D01*
X167010000Y-113600000D02*
X172110000Y-113600000D01*
X172110000Y-113600000D02*
X172510000Y-113200000D01*
X166010000Y-112600000D02*
X167010000Y-113600000D01*
X161110000Y-117700000D02*
X159410000Y-116000000D01*
X166010000Y-112600000D02*
X163510000Y-112600000D01*
X160310000Y-112600000D02*
X163510000Y-112600000D01*
X161110000Y-118900000D02*
X161110000Y-117700000D01*
X159410000Y-113500000D02*
X160310000Y-112600000D01*
X159410000Y-116000000D02*
X159410000Y-113500000D01*
X172510000Y-113200000D02*
X172510000Y-110500000D01*
X182710000Y-112700000D02*
X182710000Y-112800000D01*
X182710000Y-112800000D02*
X183510000Y-113600000D01*
X188910000Y-115000000D02*
X190610000Y-116700000D01*
X186310000Y-115000000D02*
X188910000Y-115000000D01*
X184910000Y-113600000D02*
X186310000Y-115000000D01*
X183510000Y-113600000D02*
X184910000Y-113600000D01*
X182710000Y-110500000D02*
X182710000Y-112700000D01*
X182610000Y-110600000D02*
X182710000Y-110500000D01*
X190610000Y-116700000D02*
X189610000Y-116700000D01*
X169110000Y-92450000D02*
X169110000Y-91300000D01*
X169110000Y-91300000D02*
X169810000Y-90600000D01*
X161210000Y-118900000D02*
X161110000Y-118900000D01*
X180110000Y-90600000D02*
X178810000Y-90600000D01*
X178810000Y-90600000D02*
X177010000Y-92400000D01*
X177010000Y-92400000D02*
X171610000Y-92400000D01*
X171610000Y-92400000D02*
X169810000Y-90600000D01*
X169810000Y-90600000D02*
X169810000Y-89400000D01*
X169810000Y-89400000D02*
X169110000Y-88700000D01*
X169110000Y-88700000D02*
X162610000Y-88700000D01*
X162610000Y-88700000D02*
X162010000Y-89300000D01*
X162010000Y-89300000D02*
X162010000Y-90600000D01*
X180110000Y-92200000D02*
X180110000Y-90600000D01*
X180910000Y-93000000D02*
X180110000Y-92200000D01*
X186910000Y-93000000D02*
X180910000Y-93000000D01*
X188210000Y-91700000D02*
X186910000Y-93000000D01*
X188210000Y-90600000D02*
X188210000Y-91700000D01*
X167012020Y-115400000D02*
X168510000Y-115400000D01*
X166110000Y-116302020D02*
X167012020Y-115400000D01*
X166110000Y-118900000D02*
X166110000Y-116302020D01*
X188410000Y-97050000D02*
X191710000Y-97050000D01*
X191710000Y-97050000D02*
X193010000Y-95750000D01*
X193010000Y-95750000D02*
X193010000Y-94300000D01*
X192960000Y-94350000D02*
X193010000Y-94300000D01*
X193010000Y-94300000D02*
X195210000Y-92100000D01*
X195210000Y-92100000D02*
X195210000Y-88200000D01*
X195210000Y-88200000D02*
X194410000Y-87400000D01*
X175110000Y-88300000D02*
X176010000Y-87400000D01*
X176010000Y-87400000D02*
X194410000Y-87400000D01*
X175110000Y-88300000D02*
X175110000Y-90600000D01*
X172510000Y-106000000D02*
X172510000Y-105190000D01*
X172510000Y-105190000D02*
X174400000Y-103300000D01*
X174400000Y-103300000D02*
X174400000Y-102500000D01*
X174400000Y-102500000D02*
X175400000Y-101500000D01*
X181000000Y-104336844D02*
X181000000Y-102500000D01*
X181000000Y-104336844D02*
X181000000Y-106700000D01*
X181000000Y-106700000D02*
X182000000Y-107700000D01*
X182000000Y-107700000D02*
X183500000Y-107700000D01*
X189400000Y-101800000D02*
X190000000Y-102400000D01*
X190000000Y-102400000D02*
X190000000Y-107100000D01*
X190000000Y-107100000D02*
X189400000Y-107700000D01*
X189400000Y-107700000D02*
X183500000Y-107700000D01*
X188050000Y-101800000D02*
X189400000Y-101800000D01*
X180000000Y-101500000D02*
X175400000Y-101500000D01*
X181000000Y-102500000D02*
X180000000Y-101500000D01*
X188050000Y-101800000D02*
X188050000Y-100110000D01*
X188050000Y-100110000D02*
X188410000Y-99750000D01*
X182710000Y-106000000D02*
X182710000Y-102890000D01*
X183800000Y-101800000D02*
X185350000Y-101800000D01*
X182710000Y-102890000D02*
X183800000Y-101800000D01*
X185350000Y-101800000D02*
X185350000Y-100190000D01*
X185350000Y-100190000D02*
X184910000Y-99750000D01*
X193210000Y-90600000D02*
X192310000Y-90600000D01*
X185610000Y-94200000D02*
X184910000Y-94900000D01*
X188710000Y-94200000D02*
X185610000Y-94200000D01*
X192310000Y-90600000D02*
X188710000Y-94200000D01*
X178960000Y-94200000D02*
X184210000Y-94200000D01*
X184910000Y-94900000D02*
X184910000Y-97050000D01*
X184210000Y-94200000D02*
X184910000Y-94900000D01*
X165907460Y-105939480D02*
X163107460Y-105939480D01*
X161010000Y-96000000D02*
X162860000Y-96000000D01*
X161010000Y-96000000D02*
X160341714Y-96668286D01*
X160341714Y-96668286D02*
X160341714Y-103173734D01*
X160341714Y-103173734D02*
X161407460Y-104239480D01*
X163107460Y-105939480D02*
X161407460Y-104239480D01*
X172609480Y-101202540D02*
X172609480Y-98201500D01*
X172609480Y-98201500D02*
X172607460Y-98199480D01*
X172607460Y-98199480D02*
X169859480Y-98199480D01*
X169859480Y-98199480D02*
X169110000Y-97450000D01*
X162449480Y-98710520D02*
X162860000Y-98300000D01*
X162449480Y-101202540D02*
X162449480Y-98710520D01*
X167010000Y-90600000D02*
X167010000Y-93000000D01*
X167010000Y-93000000D02*
X168210000Y-94200000D01*
X168210000Y-94200000D02*
X176260000Y-94200000D01*
X167338838Y-90928838D02*
X167010000Y-90600000D01*
M02*
