M48
;DRILL file {KiCad 4.0.3-stable} date Wed Aug 24 18:35:15 2016
;FORMAT={3:3/ absolute / metric / suppress leading zeros}
FMAT,2
METRIC,TZ
T1C0.701
T2C0.800
T3C0.990
T4C1.000
T5C1.300
%
G90
G05
M71
T1
X161407Y-104239
X161407Y-114399
X162449Y-101203
X164911Y-115297
X172607Y-88039
X172607Y-98199
X172609Y-101203
X175071Y-115297
T2
X161110Y-118900
X162010Y-90600
X166110Y-118900
X167010Y-90600
X169110Y-92450
X169110Y-97450
X175110Y-90600
X180110Y-90600
X188210Y-90600
X193210Y-90600
T3
X169510Y-106000
X169510Y-110500
X185710Y-106000
X185710Y-110500
T5
X167020Y-104750
X167020Y-111760
X188200Y-104740
X188200Y-111750
T4
X186110Y-117700G85X187110Y-117700
G05
X190110Y-116700G85X191110Y-116700
G05
X194110Y-117700G85X195110Y-117700
G05
T0
M30
