%TF.GenerationSoftware,KiCad,Pcbnew,4.0.3-stable*%
%TF.CreationDate,2016-08-24T18:09:45+01:00*%
%TF.ProjectId,ControlesVolante,436F6E74726F6C6573566F6C616E7465,rev?*%
%TF.FileFunction,Soldermask,Bot*%
%FSLAX46Y46*%
G04 Gerber Fmt 4.6, Leading zero omitted, Abs format (unit mm)*
G04 Created by KiCad (PCBNEW 4.0.3-stable) date Wed Aug 24 18:09:45 2016*
%MOMM*%
%LPD*%
G01*
G04 APERTURE LIST*
%ADD10C,0.100000*%
%ADD11R,3.000000X2.000000*%
%ADD12C,1.699260*%
%ADD13R,1.699260X1.699260*%
%ADD14R,1.300000X1.500000*%
%ADD15R,1.500000X1.300000*%
%ADD16C,1.524000*%
%ADD17C,2.100000*%
%ADD18C,1.750000*%
G04 APERTURE END LIST*
D10*
D11*
X194610000Y-117700000D03*
X186610000Y-117700000D03*
X190610000Y-116700000D03*
D12*
X161407460Y-104239480D03*
D13*
X161407460Y-114399480D03*
D12*
X175070520Y-115297460D03*
D13*
X164910520Y-115297460D03*
D12*
X172607460Y-88039480D03*
D13*
X172607460Y-98199480D03*
D12*
X162449480Y-101202540D03*
D13*
X172609480Y-101202540D03*
D14*
X193010000Y-110350000D03*
X193010000Y-113050000D03*
D15*
X190260000Y-107700000D03*
X192960000Y-107700000D03*
X176260000Y-102200000D03*
X178960000Y-102200000D03*
X178960000Y-99900000D03*
X176260000Y-99900000D03*
X176260000Y-94200000D03*
X178960000Y-94200000D03*
X162860000Y-96000000D03*
X165560000Y-96000000D03*
X162860000Y-98300000D03*
X165560000Y-98300000D03*
D16*
X175110000Y-90600000D03*
X180110000Y-90600000D03*
D17*
X188200000Y-104740000D03*
D18*
X185710000Y-106000000D03*
X185710000Y-110500000D03*
D17*
X188200000Y-111750000D03*
D16*
X193210000Y-90600000D03*
X188210000Y-90600000D03*
X167010000Y-90600000D03*
X162010000Y-90600000D03*
X166110000Y-118900000D03*
X161110000Y-118900000D03*
X169110000Y-97450000D03*
X169110000Y-92450000D03*
D17*
X167020000Y-111760000D03*
D18*
X169510000Y-110500000D03*
X169510000Y-106000000D03*
D17*
X167020000Y-104750000D03*
M02*
